# xmcd
#
# Track frame offsets:
#	150
#	15989
#	34107
#	51201
#	65341
#	78622
#	89600
#	102884
#	118243
#	134721
#	150089
#	166508
#
# Disc length: 2422 seconds
#
# Revision: 1
# Processed by: cddbd v1.4PL0 Copyright (c) Steve Scherf et al.
# Submitted via: audiograbber 1.82.02
#
DISCID=9009740c
DTITLE=Eric Horner - This Is America
DYEAR=2003
DGENRE=Country
TTITLE0=Fly
TTITLE1=The Battle Hymn of the Republic
TTITLE2=The Hands That Move America
TTITLE3=No Greater Love
TTITLE4=Freedom Rings
TTITLE5=The Star-Spangled Banner
TTITLE6=We Will Stand
TTITLE7=This Is America
TTITLE8=Welcome Home
TTITLE9=New Spirit for Old Glory
TTITLE10=America the Beautiful
TTITLE11=Always Faithful
EXTD=Safari Springs Records\nAmerican Son Records
EXTT0=
EXTT1=
EXTT2=
EXTT3=
EXTT4=
EXTT5=
EXTT6=
EXTT7=
EXTT8=
EXTT9=
EXTT10=
EXTT11=
PLAYORDER=
